<svg version="1.1" baseProfile="full" width="10000" height="10000" xmlns="http://www.w3.org/2000/svg">
	<defs>
		<filter id="shadow0">
			<feDropShadow dx="2" dy="2" stdDeviation="0.2" flood-color="#FFFF00"/>
		</filter>
		<filter id="shadow1">
			<feDropShadow dx="2" dy="2" stdDeviation="0.2" flood-color="#FF9955"/>
		</filter>
		<filter id="shadow2">
			<feDropShadow dx="2" dy="2" stdDeviation="0.2" flood-color="#FF0000"/>
		</filter>
		<filter id="shadow3">
			<feDropShadow dx="2" dy="2" stdDeviation="0.2" flood-color="#FF00CC"/>
		</filter>
		<filter id="shadow4">
			<feDropShadow dx="2" dy="2" stdDeviation="0.2" flood-color="#6600FF"/>
		</filter>
		<filter id="shadow5">
			<feDropShadow dx="2" dy="2" stdDeviation="0.2" flood-color="#A02C5A"/>
		</filter>
	</defs>
	<circle cx="0.000000" cy="0.000000" r="5.000000" stroke="yellow" fill="yellow"/>
 	<text x="0.000000" y="0.000000" stroke="black" stroke-width="0.3" fill="black">INICIO</text>
	<circle cx="0.000000" cy="0.000000" r="5.000000" stroke="yellow" fill="yellow"/>
 	<text x="0.000000" y="0.000000" stroke="black" stroke-width="0.3" fill="black">FIM</text>
	<line x1="294.750000" y1="187.250000" x2="261.000000" y2="187.250000" stroke="#00AA44"/>
	<line x1="261.000000" y1="187.250000" x2="227.250000" y2="187.250000" stroke="#00AA44"/>
	<line x1="227.250000" y1="187.250000" x2="227.250000" y2="163.500000" stroke="#00AA44"/>
	<line x1="227.250000" y1="163.500000" x2="227.250000" y2="139.750000" stroke="#00AA44"/>
	<line x1="227.250000" y1="139.750000" x2="227.250000" y2="116.000000" stroke="#00AA44"/>
	<line x1="227.250000" y1="116.000000" x2="227.250000" y2="92.250000" stroke="#00AA44"/>
	<line x1="227.250000" y1="92.250000" x2="261.000000" y2="92.250000" stroke="#00AA44"/>
	<line x1="261.000000" y1="92.250000" x2="294.750000" y2="92.250000" stroke="#00AA44"/>
	<line x1="294.750000" y1="92.250000" x2="328.500000" y2="92.250000" stroke="#00AA44"/>
	<line x1="328.500000" y1="92.250000" x2="362.250000" y2="92.250000" stroke="#00AA44"/>
	<line x1="362.250000" y1="92.250000" x2="362.250000" y2="116.000000" stroke="#00AA44"/>
	<line x1="362.250000" y1="116.000000" x2="362.250000" y2="139.750000" stroke="#00AA44"/>
	<line x1="362.250000" y1="139.750000" x2="362.250000" y2="163.500000" stroke="#00AA44"/>
	<line x1="362.250000" y1="163.500000" x2="362.250000" y2="187.250000" stroke="#00AA44"/>
	<line x1="362.250000" y1="187.250000" x2="362.250000" y2="211.000000" stroke="#00AA44"/>
	<line x1="362.250000" y1="211.000000" x2="362.250000" y2="234.750000" stroke="#00AA44"/>
	<line x1="362.250000" y1="234.750000" x2="362.250000" y2="258.500000" stroke="#00AA44"/>
	<line x1="362.250000" y1="258.500000" x2="362.250000" y2="282.250000" stroke="#00AA44"/>
	<line x1="362.250000" y1="282.250000" x2="362.250000" y2="306.000000" stroke="#00AA44"/>
	<line x1="362.250000" y1="306.000000" x2="362.250000" y2="329.750000" stroke="#00AA44"/>
	<line x1="362.250000" y1="329.750000" x2="362.250000" y2="353.500000" stroke="#00AA44"/>
	<line x1="362.250000" y1="353.500000" x2="362.250000" y2="377.250000" stroke="#00AA44"/>
	<line x1="362.250000" y1="377.250000" x2="362.250000" y2="401.000000" stroke="#00AA44"/>
	<line x1="362.250000" y1="401.000000" x2="362.250000" y2="424.750000" stroke="#00AA44"/>
	<line x1="362.250000" y1="424.750000" x2="362.250000" y2="448.500000" stroke="#00AA44"/>
	<line x1="362.250000" y1="448.500000" x2="362.250000" y2="472.250000" stroke="#00AA44"/>
	<line x1="362.250000" y1="472.250000" x2="362.250000" y2="496.000000" stroke="#00AA44"/>
	<line x1="362.250000" y1="496.000000" x2="362.250000" y2="519.750000" stroke="#00AA44"/>
	<line x1="362.250000" y1="519.750000" x2="362.250000" y2="543.500000" stroke="#00AA44"/>
	<line x1="362.250000" y1="543.500000" x2="362.250000" y2="567.250000" stroke="#00AA44"/>
	<line x1="362.250000" y1="567.250000" x2="362.250000" y2="591.000000" stroke="#00AA44"/>
	<line x1="362.250000" y1="591.000000" x2="362.250000" y2="614.750000" stroke="#00AA44"/>
	<line x1="362.250000" y1="614.750000" x2="362.250000" y2="638.500000" stroke="#00AA44"/>
	<line x1="362.250000" y1="638.500000" x2="362.250000" y2="662.250000" stroke="#00AA44"/>
	<line x1="362.250000" y1="662.250000" x2="362.250000" y2="686.000000" stroke="#00AA44"/>
	<line x1="362.250000" y1="686.000000" x2="362.250000" y2="709.750000" stroke="#00AA44"/>
	<line x1="362.250000" y1="709.750000" x2="362.250000" y2="733.500000" stroke="#00AA44"/>
	<line x1="362.250000" y1="733.500000" x2="362.250000" y2="757.250000" stroke="#00AA44"/>
	<line x1="362.250000" y1="757.250000" x2="362.250000" y2="781.000000" stroke="#00AA44"/>
	<line x1="362.250000" y1="781.000000" x2="362.250000" y2="804.750000" stroke="#00AA44"/>
	<line x1="362.250000" y1="804.750000" x2="362.250000" y2="828.500000" stroke="#00AA44"/>
	<line x1="362.250000" y1="828.500000" x2="362.250000" y2="852.250000" stroke="#00AA44"/>
	<line x1="362.250000" y1="852.250000" x2="362.250000" y2="876.000000" stroke="#00AA44"/>
	<line x1="362.250000" y1="876.000000" x2="362.250000" y2="899.750000" stroke="#00AA44"/>
	<line x1="362.250000" y1="899.750000" x2="362.250000" y2="923.500000" stroke="#00AA44"/>
	<line x1="362.250000" y1="923.500000" x2="362.250000" y2="947.250000" stroke="#00AA44"/>
	<line x1="362.250000" y1="947.250000" x2="362.250000" y2="969.125000" stroke="#00AA44"/>
	<line x1="362.250000" y1="969.125000" x2="362.250000" y2="991.000000" stroke="#00AA44"/>
	<line x1="362.250000" y1="991.000000" x2="362.250000" y2="1012.875000" stroke="#00AA44"/>
	<line x1="362.250000" y1="1012.875000" x2="362.250000" y2="1034.750000" stroke="#00AA44"/>
	<line x1="362.250000" y1="1034.750000" x2="396.000000" y2="1034.750000" stroke="#00AA44"/>
	<line x1="396.000000" y1="1034.750000" x2="429.750000" y2="1034.750000" stroke="#00AA44"/>
	<line x1="429.750000" y1="1034.750000" x2="463.500000" y2="1034.750000" stroke="#00AA44"/>
	<line x1="463.500000" y1="1034.750000" x2="497.250000" y2="1034.750000" stroke="#00AA44"/>
	<line x1="497.250000" y1="1034.750000" x2="531.000000" y2="1034.750000" stroke="#00AA44"/>
	<line x1="531.000000" y1="1034.750000" x2="564.750000" y2="1034.750000" stroke="#00AA44"/>
	<line x1="564.750000" y1="1034.750000" x2="598.500000" y2="1034.750000" stroke="#00AA44"/>
	<line x1="598.500000" y1="1034.750000" x2="632.250000" y2="1034.750000" stroke="#00AA44"/>
	<line x1="632.250000" y1="1034.750000" x2="666.000000" y2="1034.750000" stroke="#00AA44"/>
	<line x1="666.000000" y1="1034.750000" x2="699.750000" y2="1034.750000" stroke="#00AA44"/>
	<line x1="699.750000" y1="1034.750000" x2="733.500000" y2="1034.750000" stroke="#00AA44"/>
	<line x1="733.500000" y1="1034.750000" x2="767.250000" y2="1034.750000" stroke="#00AA44"/>
	<line x1="767.250000" y1="1034.750000" x2="801.000000" y2="1034.750000" stroke="#00AA44"/>
	<line x1="801.000000" y1="1034.750000" x2="834.750000" y2="1034.750000" stroke="#00AA44"/>
	<line x1="834.750000" y1="1034.750000" x2="868.500000" y2="1034.750000" stroke="#00AA44"/>
	<line x1="868.500000" y1="1034.750000" x2="902.250000" y2="1034.750000" stroke="#00AA44"/>
	<line x1="902.250000" y1="1034.750000" x2="936.000000" y2="1034.750000" stroke="#00AA44"/>
	<line x1="936.000000" y1="1034.750000" x2="969.750000" y2="1034.750000" stroke="#00AA44"/>
	<line x1="969.750000" y1="1034.750000" x2="1003.500000" y2="1034.750000" stroke="#00AA44"/>
	<line x1="1003.500000" y1="1034.750000" x2="1037.250000" y2="1034.750000" stroke="#00AA44"/>
	<line x1="1037.250000" y1="1034.750000" x2="1071.000000" y2="1034.750000" stroke="#00AA44"/>
	<line x1="1071.000000" y1="1034.750000" x2="1104.750000" y2="1034.750000" stroke="#00AA44"/>
	<line x1="1104.750000" y1="1034.750000" x2="1138.500000" y2="1034.750000" stroke="#00AA44"/>
	<line x1="1138.500000" y1="1034.750000" x2="1172.250000" y2="1034.750000" stroke="#00AA44"/>
	<line x1="1172.250000" y1="1034.750000" x2="1206.000000" y2="1034.750000" stroke="#00AA44"/>
	<line x1="1206.000000" y1="1034.750000" x2="1239.750000" y2="1034.750000" stroke="#00AA44"/>
	<line x1="1239.750000" y1="1034.750000" x2="1273.500000" y2="1034.750000" stroke="#00AA44"/>
	<line x1="1273.500000" y1="1034.750000" x2="1307.250000" y2="1034.750000" stroke="#00AA44"/>
	<line x1="1307.250000" y1="1034.750000" x2="1341.000000" y2="1034.750000" stroke="#00AA44"/>
	<line x1="1341.000000" y1="1034.750000" x2="1374.750000" y2="1034.750000" stroke="#00AA44"/>
	<line x1="292.750000" y1="185.250000" x2="259.000000" y2="185.250000" stroke="#D400AA"/>
	<line x1="259.000000" y1="185.250000" x2="225.250000" y2="185.250000" stroke="#D400AA"/>
	<line x1="225.250000" y1="185.250000" x2="191.500000" y2="185.250000" stroke="#D400AA"/>
	<line x1="191.500000" y1="185.250000" x2="157.750000" y2="185.250000" stroke="#D400AA"/>
	<line x1="157.750000" y1="185.250000" x2="124.000000" y2="185.250000" stroke="#D400AA"/>
	<line x1="124.000000" y1="185.250000" x2="90.250000" y2="185.250000" stroke="#D400AA"/>
	<line x1="90.250000" y1="185.250000" x2="58.000000" y2="185.250000" stroke="#D400AA"/>
	<line x1="58.000000" y1="185.250000" x2="58.000000" y2="161.500000" stroke="#D400AA"/>
	<line x1="58.000000" y1="161.500000" x2="58.000000" y2="137.750000" stroke="#D400AA"/>
	<line x1="58.000000" y1="137.750000" x2="58.000000" y2="114.000000" stroke="#D400AA"/>
	<line x1="58.000000" y1="114.000000" x2="58.000000" y2="90.250000" stroke="#D400AA"/>
	<line x1="58.000000" y1="90.250000" x2="46.500000" y2="94.000000" stroke="#D400AA"/>
	<line x1="46.500000" y1="94.000000" x2="5.000000" y2="94.000000" stroke="#D400AA"/>
	<line x1="5.000000" y1="94.000000" x2="5.000000" y2="1044.000000" stroke="#D400AA"/>
	<line x1="5.000000" y1="1044.000000" x2="14.000000" y2="1061.500000" stroke="#D400AA"/>
	<line x1="14.000000" y1="1061.500000" x2="56.500000" y2="1104.000000" stroke="#D400AA"/>
	<line x1="56.500000" y1="1104.000000" x2="94.000000" y2="1113.000000" stroke="#D400AA"/>
	<line x1="94.000000" y1="1113.000000" x2="1444.000000" y2="1113.000000" stroke="#D400AA"/>
	<line x1="1444.000000" y1="1113.000000" x2="1539.000000" y2="1091.500000" stroke="#D400AA"/>
	<line x1="1539.000000" y1="1091.500000" x2="1440.250000" y2="1060.000000" stroke="#D400AA"/>
	<line x1="1440.250000" y1="1060.000000" x2="1406.500000" y2="1060.000000" stroke="#D400AA"/>
	<line x1="1406.500000" y1="1060.000000" x2="1372.750000" y2="1060.000000" stroke="#D400AA"/>
	<line x1="1372.750000" y1="1060.000000" x2="1372.750000" y2="1032.750000" stroke="#D400AA"/>
</svg>